<mxfile host="app.diagrams.net" modified="2024-06-26T07:54:24.276Z" agent="Mozilla/5.0 (Windows NT 10.0; Win64; x64) AppleWebKit/537.36 (KHTML, like Gecko) Chrome/126.0.0.0 Safari/537.36" etag="C70cu8GlTp-9G6kMyO5q" version="24.6.2" type="github">
  <diagram name="Page-1" id="5f0bae14-7c28-e335-631c-24af17079c00">
    <mxGraphModel dx="2074" dy="1098" grid="1" gridSize="10" guides="1" tooltips="1" connect="1" arrows="1" fold="1" page="1" pageScale="1" pageWidth="1100" pageHeight="850" background="none" math="0" shadow="0">
      <root>
        <mxCell id="0" />
        <mxCell id="1" parent="0" />
        <mxCell id="cFVbqFgCPpTkA-hCrsVO-2" value="" style="rounded=1;whiteSpace=wrap;html=1;fillColor=#dae8fc;strokeColor=#6c8ebf;" vertex="1" parent="1">
          <mxGeometry x="90" y="160" width="290" height="440" as="geometry" />
        </mxCell>
        <mxCell id="cFVbqFgCPpTkA-hCrsVO-3" value="" style="rounded=1;whiteSpace=wrap;html=1;fillColor=#dae8fc;strokeColor=#6c8ebf;" vertex="1" parent="1">
          <mxGeometry x="630" y="160" width="380" height="440" as="geometry" />
        </mxCell>
        <mxCell id="cFVbqFgCPpTkA-hCrsVO-4" value="&lt;font style=&quot;font-size: 23px;&quot;&gt;账号密码登入，获取认证字符串token&lt;/font&gt;" style="rounded=1;whiteSpace=wrap;html=1;fillColor=#fff2cc;strokeColor=#d6b656;" vertex="1" parent="1">
          <mxGeometry x="125" y="258" width="220" height="120" as="geometry" />
        </mxCell>
        <mxCell id="cFVbqFgCPpTkA-hCrsVO-6" value="&lt;font style=&quot;font-size: 23px;&quot;&gt;带着token访问需要权限的接口&lt;/font&gt;" style="rounded=1;whiteSpace=wrap;html=1;fillColor=#d5e8d4;strokeColor=#82b366;" vertex="1" parent="1">
          <mxGeometry x="125" y="438" width="220" height="120" as="geometry" />
        </mxCell>
        <mxCell id="cFVbqFgCPpTkA-hCrsVO-7" value="&lt;font style=&quot;font-size: 23px;&quot;&gt;根据提交的用户、客户信息生成token,将token直接返回给客户端,存在客户端的cookies中(签发)&lt;/font&gt;" style="rounded=1;whiteSpace=wrap;html=1;fillColor=#fff2cc;strokeColor=#d6b656;" vertex="1" parent="1">
          <mxGeometry x="645" y="243" width="345" height="140" as="geometry" />
        </mxCell>
        <mxCell id="cFVbqFgCPpTkA-hCrsVO-8" value="&lt;font style=&quot;font-size: 23px;&quot;&gt;从请求中拿到携带的token,利用签发token的逆运算代码解析token,得到user对象，存到request.user中,给之后的服务器代码使用(校验)&lt;/font&gt;" style="rounded=1;whiteSpace=wrap;html=1;fillColor=#d5e8d4;strokeColor=#82b366;" vertex="1" parent="1">
          <mxGeometry x="645" y="413" width="350" height="160" as="geometry" />
        </mxCell>
        <mxCell id="cFVbqFgCPpTkA-hCrsVO-11" value="" style="endArrow=classic;startArrow=classic;html=1;rounded=0;exitX=1;exitY=0.5;exitDx=0;exitDy=0;entryX=0;entryY=0.5;entryDx=0;entryDy=0;" edge="1" parent="1" source="cFVbqFgCPpTkA-hCrsVO-4" target="cFVbqFgCPpTkA-hCrsVO-7">
          <mxGeometry width="50" height="50" relative="1" as="geometry">
            <mxPoint x="420" y="320" as="sourcePoint" />
            <mxPoint x="470" y="270" as="targetPoint" />
          </mxGeometry>
        </mxCell>
        <mxCell id="cFVbqFgCPpTkA-hCrsVO-13" value="&lt;font style=&quot;font-size: 17px;&quot;&gt;存到cookies中&lt;/font&gt;" style="text;html=1;align=center;verticalAlign=middle;whiteSpace=wrap;rounded=0;" vertex="1" parent="1">
          <mxGeometry x="436" y="325" width="130" height="30" as="geometry" />
        </mxCell>
        <mxCell id="cFVbqFgCPpTkA-hCrsVO-14" value="&lt;font style=&quot;font-size: 17px;&quot;&gt;返回token&lt;/font&gt;" style="text;html=1;align=center;verticalAlign=middle;whiteSpace=wrap;rounded=0;" vertex="1" parent="1">
          <mxGeometry x="446" y="268" width="110" height="30" as="geometry" />
        </mxCell>
        <mxCell id="cFVbqFgCPpTkA-hCrsVO-15" value="&lt;font style=&quot;font-size: 18px;&quot;&gt;携带token访问&lt;/font&gt;" style="text;html=1;align=center;verticalAlign=middle;whiteSpace=wrap;rounded=0;" vertex="1" parent="1">
          <mxGeometry x="446" y="466" width="120" height="30" as="geometry" />
        </mxCell>
        <mxCell id="cFVbqFgCPpTkA-hCrsVO-16" value="" style="endArrow=classic;html=1;rounded=0;exitX=1;exitY=0.5;exitDx=0;exitDy=0;entryX=0;entryY=0.5;entryDx=0;entryDy=0;" edge="1" parent="1" source="cFVbqFgCPpTkA-hCrsVO-6" target="cFVbqFgCPpTkA-hCrsVO-8">
          <mxGeometry width="50" height="50" relative="1" as="geometry">
            <mxPoint x="520" y="200" as="sourcePoint" />
            <mxPoint x="570" y="150" as="targetPoint" />
          </mxGeometry>
        </mxCell>
        <mxCell id="cFVbqFgCPpTkA-hCrsVO-17" value="&lt;font style=&quot;font-size: 21px;&quot;&gt;客户端&lt;/font&gt;" style="text;html=1;align=center;verticalAlign=middle;whiteSpace=wrap;rounded=0;" vertex="1" parent="1">
          <mxGeometry x="190" y="180" width="90" height="30" as="geometry" />
        </mxCell>
        <mxCell id="cFVbqFgCPpTkA-hCrsVO-18" value="&lt;font style=&quot;font-size: 21px;&quot;&gt;服务&lt;/font&gt;&lt;span style=&quot;font-size: 21px;&quot;&gt;端&lt;/span&gt;" style="text;html=1;align=center;verticalAlign=middle;whiteSpace=wrap;rounded=0;" vertex="1" parent="1">
          <mxGeometry x="775" y="180" width="90" height="30" as="geometry" />
        </mxCell>
      </root>
    </mxGraphModel>
  </diagram>
</mxfile>
